<svg xmlns="http://www.w3.org/2000/svg" width="159.781" height="63.168" viewBox="0 0 159.781 63.168">
    <defs>
        <style>
            .cls-1{fill:#191919}.cls-3{fill:#fff}.cls-4{fill:#9c824a}.cls-5{fill:#ef0107}.cls-6{fill:#db0007}.cls-7{fill:#023474}
        </style>
    </defs>
    <g id="logo" transform="translate(-810.133 1634.087)">
        <g id="Group_9580">
            <path id="Path_15103" d="M813.735-1570.919a3.4 3.4 0 0 1-2.619-1.06 3.9 3.9 0 0 1-.983-2.758 4.121 4.121 0 0 1 1-2.91 3.516 3.516 0 0 1 2.72-1.087 3.329 3.329 0 0 1 2.566 1.054 3.912 3.912 0 0 1 .972 2.758 4.135 4.135 0 0 1-1 2.927 3.455 3.455 0 0 1-2.656 1.076zm.057-6.713a2.1 2.1 0 0 0-1.69.775 3.069 3.069 0 0 0-.651 2.041 3.094 3.094 0 0 0 .633 2.03 2.038 2.038 0 0 0 1.656.77 2.136 2.136 0 0 0 1.713-.734 3.057 3.057 0 0 0 .628-2.05 3.207 3.207 0 0 0-.609-2.094 2.06 2.06 0 0 0-1.68-.738z" class="cls-1"/>
            <path id="Path_15104" d="M822.861-1577.542h-2.826v2.272h2.605v1.06h-2.605v3.164h-1.255v-7.562h4.081z" class="cls-1"/>
            <path id="Path_15105" d="M828.287-1577.542h-2.826v2.272h2.6v1.06h-2.6v3.164h-1.255v-7.562h4.081z" class="cls-1"/>
            <path id="Path_15106" d="M830.919-1571.046h-1.292v-7.562h1.292z" class="cls-1"/>
            <path id="Path_15107" d="M838.053-1571.363a4.573 4.573 0 0 1-2.125.444 3.477 3.477 0 0 1-2.636-1.039 3.787 3.787 0 0 1-.991-2.727 3.972 3.972 0 0 1 1.114-2.931 3.819 3.819 0 0 1 2.819-1.118 4.605 4.605 0 0 1 1.819.311v1.244a3.246 3.246 0 0 0-1.687-.453 2.645 2.645 0 0 0-1.99.786 2.881 2.881 0 0 0-.763 2.1 2.75 2.75 0 0 0 .712 1.991 2.479 2.479 0 0 0 1.873.741 3.357 3.357 0 0 0 1.855-.506z" class="cls-1"/>
            <path id="Path_15108" d="M840.774-1571.046h-1.292v-7.562h1.292z" class="cls-1"/>
            <path id="Path_15109" d="M848.846-1571.046h-1.376l-.68-1.925h-2.974l-.654 1.925h-1.371l2.832-7.562h1.413zm-2.388-2.948l-1.049-3.016a3.6 3.6 0 0 1-.1-.474h-.021a2.95 2.95 0 0 1-.106.474l-1.038 3.016z" class="cls-1"/>
            <path id="Path_15110" d="M854.072-1571.046h-4.187v-7.562h1.255v6.5h2.932z" class="cls-1"/>
            <path id="Path_15111" d="M859.382-1573.788v2.742h-1.25v-7.562h2.293a3.041 3.041 0 0 1 2.02.607 2.114 2.114 0 0 1 .717 1.708 2.36 2.36 0 0 1-.75 1.8 2.844 2.844 0 0 1-2.024.7zm0-3.786v2.763h.811a1.8 1.8 0 0 0 1.229-.374 1.338 1.338 0 0 0 .421-1.054q0-1.335-1.55-1.335z" class="cls-1"/>
            <path id="Path_15112" d="M869.911-1571.046h-1.376l-.68-1.925h-2.975l-.653 1.925h-1.371l2.832-7.562h1.412zm-2.389-2.948l-1.049-3.016a3.465 3.465 0 0 1-.1-.474h-.021a3.053 3.053 0 0 1-.106.474l-1.038 3.016z" class="cls-1"/>
            <path id="Path_15113" d="M876.792-1571.046h-1.466l-1.207-2.025a4.233 4.233 0 0 0-.32-.477 1.839 1.839 0 0 0-.316-.324 1.053 1.053 0 0 0-.35-.185 1.459 1.459 0 0 0-.427-.057h-.506v3.068h-1.25v-7.562h2.489a3.615 3.615 0 0 1 .98.127 2.27 2.27 0 0 1 .781.383 1.79 1.79 0 0 1 .519.637 2.009 2.009 0 0 1 .188.894 2.158 2.158 0 0 1-.12.735 1.905 1.905 0 0 1-.337.6 2.054 2.054 0 0 1-.527.445 2.613 2.613 0 0 1-.694.285v.021a1.914 1.914 0 0 1 .359.256c.1.093.2.189.29.288a3.344 3.344 0 0 1 .272.334c.089.125.188.269.3.435zm-4.592-6.544v2.458h1.044a1.534 1.534 0 0 0 .534-.091 1.22 1.22 0 0 0 .425-.257 1.19 1.19 0 0 0 .28-.411 1.432 1.432 0 0 0 .1-.544 1.081 1.081 0 0 0-.343-.849 1.434 1.434 0 0 0-.986-.306z" class="cls-1"/>
            <path id="Path_15114" d="M882.271-1577.542H880.1v6.5h-1.255v-6.5h-2.167v-1.066h5.594z" class="cls-1"/>
            <path id="Path_15115" d="M889.79-1571.046h-1.372l-3.611-5.557a2.566 2.566 0 0 1-.227-.438h-.032a7.738 7.738 0 0 1 .043 1.038v4.957h-1.213v-7.562h1.46l3.491 5.427a5.4 5.4 0 0 1 .284.463h.022a6.709 6.709 0 0 1-.053-1.017v-4.873h1.208z" class="cls-1"/>
            <path id="Path_15116" d="M895.907-1571.046h-4.245v-7.562h4.076v1.066h-2.821v2.14h2.6v1.06h-2.6v2.236h2.99z" class="cls-1"/>
            <path id="Path_15117" d="M903.093-1571.046h-1.465l-1.208-2.025a4.236 4.236 0 0 0-.319-.477 1.874 1.874 0 0 0-.316-.324 1.058 1.058 0 0 0-.351-.185 1.45 1.45 0 0 0-.427-.057h-.507v3.068h-1.25v-7.562h2.489a3.618 3.618 0 0 1 .981.127 2.256 2.256 0 0 1 .78.383 1.793 1.793 0 0 1 .52.637 2.009 2.009 0 0 1 .187.894 2.182 2.182 0 0 1-.119.735 1.926 1.926 0 0 1-.337.6 2.06 2.06 0 0 1-.528.445 2.607 2.607 0 0 1-.693.285v.021a1.983 1.983 0 0 1 .359.256c.1.093.2.189.289.288a3.085 3.085 0 0 1 .272.334c.09.125.189.269.3.435zm-4.592-6.544v2.458h1.044a1.539 1.539 0 0 0 .535-.091 1.22 1.22 0 0 0 .425-.257 1.188 1.188 0 0 0 .279-.411 1.413 1.413 0 0 0 .1-.544 1.081 1.081 0 0 0-.343-.849 1.437 1.437 0 0 0-.987-.306z" class="cls-1"/>
            <path id="Path_15118" d="M910.059-1570.919a3.4 3.4 0 0 1-2.618-1.06 3.9 3.9 0 0 1-.983-2.758 4.121 4.121 0 0 1 1-2.91 3.516 3.516 0 0 1 2.72-1.087 3.33 3.33 0 0 1 2.566 1.054 3.912 3.912 0 0 1 .972 2.758 4.14 4.14 0 0 1-1 2.927 3.456 3.456 0 0 1-2.657 1.076zm.058-6.713a2.1 2.1 0 0 0-1.69.775 3.068 3.068 0 0 0-.651 2.041 3.094 3.094 0 0 0 .633 2.03 2.037 2.037 0 0 0 1.655.77 2.138 2.138 0 0 0 1.714-.734 3.057 3.057 0 0 0 .628-2.05 3.207 3.207 0 0 0-.609-2.094 2.061 2.061 0 0 0-1.68-.738z" class="cls-1"/>
            <path id="Path_15119" d="M919.186-1577.542h-2.826v2.272h2.605v1.06h-2.605v3.164h-1.26v-7.562h4.081z" class="cls-1"/>
            <path id="Path_15120" d="M929.711-1571.046h-1.376l-.68-1.925h-2.975l-.654 1.925h-1.37l2.832-7.562h1.412zm-2.389-2.948l-1.049-3.016a3.474 3.474 0 0 1-.1-.474h-.022a2.959 2.959 0 0 1-.1.474l-1.038 3.016z" class="cls-1"/>
            <path id="Path_15121" d="M936.592-1571.046h-1.466l-1.208-2.025a4.236 4.236 0 0 0-.319-.477 1.876 1.876 0 0 0-.316-.324 1.063 1.063 0 0 0-.35-.185 1.46 1.46 0 0 0-.428-.057H932v3.068h-1.25v-7.562h2.489a3.618 3.618 0 0 1 .981.127 2.257 2.257 0 0 1 .78.383 1.782 1.782 0 0 1 .52.637 2.009 2.009 0 0 1 .187.894 2.158 2.158 0 0 1-.119.735 1.905 1.905 0 0 1-.337.6 2.043 2.043 0 0 1-.528.445 2.592 2.592 0 0 1-.693.285v.021a1.914 1.914 0 0 1 .359.256c.1.093.2.189.29.288a3.344 3.344 0 0 1 .272.334c.089.125.188.269.3.435zM932-1577.59v2.458h1.044a1.535 1.535 0 0 0 .535-.091 1.22 1.22 0 0 0 .425-.257 1.174 1.174 0 0 0 .279-.411 1.413 1.413 0 0 0 .1-.544 1.081 1.081 0 0 0-.343-.849 1.434 1.434 0 0 0-.986-.306z" class="cls-1"/>
            <path id="Path_15122" d="M937.124-1571.347v-1.291a2.064 2.064 0 0 0 .414.285 3.216 3.216 0 0 0 .51.213 4.053 4.053 0 0 0 .537.134 2.84 2.84 0 0 0 .5.048 2.117 2.117 0 0 0 1.179-.264.867.867 0 0 0 .386-.764.835.835 0 0 0-.129-.467 1.357 1.357 0 0 0-.36-.362 3.908 3.908 0 0 0-.546-.313c-.21-.1-.433-.2-.672-.314q-.386-.205-.717-.417a2.989 2.989 0 0 1-.578-.466 1.938 1.938 0 0 1-.385-.577 1.888 1.888 0 0 1-.14-.755 1.741 1.741 0 0 1 .24-.925 2.027 2.027 0 0 1 .633-.648 2.9 2.9 0 0 1 .893-.38 4.28 4.28 0 0 1 1.023-.124 4.131 4.131 0 0 1 1.73.269v1.239a2.764 2.764 0 0 0-1.655-.464 2.982 2.982 0 0 0-.557.053 1.653 1.653 0 0 0-.5.174 1.073 1.073 0 0 0-.355.311.756.756 0 0 0-.137.459.859.859 0 0 0 .105.437 1.1 1.1 0 0 0 .309.337 3.045 3.045 0 0 0 .495.3c.2.1.421.2.678.314q.395.206.746.432a3.51 3.51 0 0 1 .617.5 2.188 2.188 0 0 1 .421.609 1.783 1.783 0 0 1 .156.762 1.885 1.885 0 0 1-.232.97 1.865 1.865 0 0 1-.625.643 2.759 2.759 0 0 1-.9.359 5.151 5.151 0 0 1-1.081.111c-.127 0-.282-.011-.466-.03s-.375-.047-.568-.084a4.94 4.94 0 0 1-.548-.135 1.716 1.716 0 0 1-.421-.179z" class="cls-1"/>
            <path id="Path_15123" d="M947.6-1571.046h-4.245v-7.562h4.076v1.066h-2.821v2.14h2.6v1.06h-2.6v2.236h2.99z" class="cls-1"/>
            <path id="Path_15124" d="M955.353-1571.046h-1.371l-3.612-5.557a2.566 2.566 0 0 1-.227-.438h-.031a7.8 7.8 0 0 1 .042 1.038v4.957h-1.213v-7.562h1.46l3.491 5.427c.148.224.243.379.285.463h.021a6.755 6.755 0 0 1-.052-1.017v-4.873h1.207z" class="cls-1"/>
            <path id="Path_15125" d="M963.436-1571.046h-1.376l-.68-1.925h-2.974l-.654 1.925h-1.371l2.832-7.562h1.413zm-2.388-2.948L960-1577.01a3.586 3.586 0 0 1-.1-.474h-.021a2.943 2.943 0 0 1-.106.474l-1.038 3.016z" class="cls-1"/>
            <path id="Path_15126" d="M968.662-1571.046h-4.187v-7.562h1.255v6.5h2.932z" class="cls-1"/>
        </g>
        <g id="Group_9583">
            <path id="Line_91" fill="none" stroke="#b7b7b7" stroke-miterlimit="282" stroke-width="0.5px" d="M0 0L0 38.823" transform="translate(913.396 -1628.385)"/>
            <g id="Group_9581">
                <path id="Path_15127" d="M886.625-1613.067c-6.822 9.618-11.976 17.672-11.976 17.672s5.909-7.535 12.732-17.151 11.975-17.672 11.975-17.672-5.909 7.534-12.731 17.151z" class="cls-1"/>
                <path id="Path_15128" d="M885.041-1614.162c-5.545 7.812-9.659 14.406-9.659 14.406s4.87-6.072 10.413-13.885 9.658-14.405 9.658-14.405-4.871 6.072-10.412 13.884z" class="cls-1"/>
                <path id="Path_15129" d="M888.2-1611.982c-5.541 7.813-9.658 14.407-9.658 14.407s4.871-6.072 10.414-13.886 9.657-14.4 9.657-14.4-4.873 6.067-10.413 13.879z" class="cls-1"/>
                <path id="Path_15130" d="M834.4-1622.806h6.858v8.441l6.342-8.441h7.53l-7.534 9.626 8.345 10.373h-7.717l-6.966-9.1v9.1h-6.848z" class="cls-1"/>
                <path id="Path_15131" d="M856.946-1602.807v-20h17.743v5.042H863.8v3.343h9.025v4.665H863.8v6.949z" class="cls-1"/>
                <path id="Path_15132" d="M876.057-1622.806l6.709 9.174 3.669-5.108-3.11-4.066z" class="cls-1"/>
                <path id="Path_15133" d="M898.13-1602.807l-6.709-9.173-3.668 5.1 3.109 4.068z" class="cls-1"/>
                <path id="Path_15134" d="M821.638-1614.315v4.048h3.662a4.037 4.037 0 0 1-3.549 1.882 4.579 4.579 0 0 1-4.623-4.752 4.576 4.576 0 0 1 4.525-4.645 4.879 4.879 0 0 1 3.956 1.64h6.107a10.572 10.572 0 0 0-10.063-7.383 10.471 10.471 0 0 0-10.528 10.388 10.469 10.469 0 0 0 10.528 10.385 10.57 10.57 0 0 0 5.987-1.846v1.791h4.525v-11.508z" class="cls-1"/>
            </g>
            <g id="Group_9582">
                <path id="Path_15135" d="M948.954-1633.869a45.74 45.74 0 0 1 18.735 3.978 65.266 65.266 0 0 1 2.025 13.662v.186a33.45 33.45 0 0 1-1.444 9.8 31.978 31.978 0 0 1-4.165 8.668 34.836 34.836 0 0 1-6.567 7.172 38.634 38.634 0 0 1-8.585 5.454 38.617 38.617 0 0 1-8.586-5.454 34.807 34.807 0 0 1-6.567-7.172 32.012 32.012 0 0 1-4.166-8.668 33.484 33.484 0 0 1-1.443-9.806v-.185a65.276 65.276 0 0 1 2.026-13.662 45.741 45.741 0 0 1 18.736-3.978" class="cls-3"/>
                <path id="Path_15136" d="M948.948-1614.186a7.739 7.739 0 0 0-7.739 7.738 7.739 7.739 0 0 0 7.739 7.738 7.738 7.738 0 0 0 7.737-7.738 7.738 7.738 0 0 0-7.737-7.738" class="cls-4"/>
                <path id="Path_15137" d="M948.437-1612.757a6.323 6.323 0 0 0-4.7 2.711l3.6 2.079a2.2 2.2 0 0 1 1.094-.631z" class="cls-3"/>
                <path id="Path_15138" d="M944.339-1610.163l2.941 1.695a2.516 2.516 0 0 1 .752-.432v-3.4a5.82 5.82 0 0 0-3.692 2.132" class="cls-4"/>
                <path id="Path_15139" d="M949.461-1612.757v4.159a2.2 2.2 0 0 1 1.093.632l3.6-2.079a6.324 6.324 0 0 0-4.7-2.712" class="cls-3"/>
                <path id="Path_15140" d="M949.873-1612.292l-.006 3.4a2.464 2.464 0 0 1 .743.421l2.947-1.693a5.806 5.806 0 0 0-3.684-2.13" class="cls-4"/>
                <path id="Path_15141" d="M951.061-1605.82l3.608 2.083a6.335 6.335 0 0 0 0-5.421l-3.606 2.081a2.178 2.178 0 0 1 0 1.257" class="cls-3"/>
                <path id="Path_15142" d="M954.845-1607.063a5.714 5.714 0 0 0-.369-1.512l-2.952 1.7a2.514 2.514 0 0 1 .038.424c0 .058 0 .115-.007.172.835-.227 1.713-.445 2.6-.632.217-.046.447-.1.687-.149" class="cls-4"/>
                <path id="Path_15143" d="M943.223-1609.152a6.321 6.321 0 0 0 .012 5.423l3.6-2.088a2.2 2.2 0 0 1 0-1.263z" class="cls-3"/>
                <path id="Path_15144" d="M943.431-1604.307l2.935-1.7a2.529 2.529 0 0 1 0-.868l-2.944-1.69a5.821 5.821 0 0 0 .009 4.263" class="cls-4"/>
                <path id="Path_15145" d="M949.461-1604.308v4.169a6.324 6.324 0 0 0 4.694-2.71l-3.61-2.084a2.2 2.2 0 0 1-1.084.625" class="cls-3"/>
                <path id="Path_15146" d="M948.947-1607.575a1.125 1.125 0 0 0-1.125 1.124 1.126 1.126 0 0 0 1.125 1.126 1.125 1.125 0 0 0 1.124-1.126 1.124 1.124 0 0 0-1.124-1.124" class="cls-3"/>
                <path id="Path_15147" d="M948.437-1604.308a2.207 2.207 0 0 1-.916-.464c-.059-.051-.116-.1-.17-.161l-3.61 2.084c.083.12.17.235.26.349a6.326 6.326 0 0 0 4.436 2.361z" class="cls-3"/>
                <path id="Path_15148" d="M948.957-1632.738a44.246 44.246 0 0 0-13.847 2.181 86.047 86.047 0 0 0-2.173 13.3 33.494 33.494 0 0 0 .939 10.519 32.28 32.28 0 0 0 1.892 5.382 20.1 20.1 0 0 0 2.655-1.692 13.4 13.4 0 0 0 2.443-2.466 8.346 8.346 0 0 1-.054-.94 8.185 8.185 0 0 1 .126-1.436c-1.673.059-2.624.08-3.37.08a2.383 2.383 0 0 1-2.12-1.586h-.421c-.318 0-.856-.271-.856-1.29s.538-1.289.856-1.289h.42a2.384 2.384 0 0 1 2.121-1.59h7.417a8.11 8.11 0 0 1 3.971-1.031z" class="cls-5"/>
                <path id="Path_15149" d="M948.954-1598.306a8.14 8.14 0 0 1-6.462-3.181 27.719 27.719 0 0 1-5.554 2.417 33.589 33.589 0 0 0 5.389 7.075 39.879 39.879 0 0 0 6.627 5.338z" class="cls-5"/>
                <path id="Path_15150" d="M944.341-1602.73l2.948-1.707a2.487 2.487 0 0 0 .743.426l-.006 3.408a5.807 5.807 0 0 1-3.685-2.127" class="cls-5"/>
                <path id="Path_15151" d="M948.954-1614.592a8.11 8.11 0 0 1 3.974 1.029h12.1c.024-.846.01-1.8-.007-2.694a79.638 79.638 0 0 0-2.2-14.294 44.681 44.681 0 0 0-13.857-2.2z" class="cls-6"/>
                <path id="Path_15152" d="M948.954-1586.657a39.938 39.938 0 0 0 6.63-5.343 33.646 33.646 0 0 0 5.64-7.527 31.655 31.655 0 0 0 3.188-8.835c.047-.235.092-.46.135-.695l-3.428.245a1.564 1.564 0 0 1-1.167.967h.006c-.023.006-1.28.318-2.9.691q.03.35.03.707a8.138 8.138 0 0 1-8.134 8.143z" class="cls-6"/>
                <path id="Path_15153" d="M949.865-1600.6a5.83 5.83 0 0 0 3.7-2.129l-2.961-1.7a2.419 2.419 0 0 1-.734.428s.006 3.4 0 3.4" class="cls-6"/>
                <path id="Path_15154" d="M954.874-1606.444c0-.08 0-.161-.006-.241-.222.05-.436.1-.637.137-.9.19-1.772.411-2.548.623l2.789 1.61a5.806 5.806 0 0 0 .4-2.129" class="cls-6"/>
                <path id="Path_15155" d="M951.9-1619.7c-.007.159-.048.692-.062.851h2.345a13.526 13.526 0 0 1-.217-2.144l-.036-1.354a.414.414 0 0 1 .106-.313.357.357 0 0 1 .255-.113c.11 0 .293 0 .307.378l.051 1.439a13.18 13.18 0 0 1-.052 2.107h2.286c-.038-.2-.1-.668-.118-.8a1.753 1.753 0 0 0 1.724.92 2.133 2.133 0 0 0 1.145-.349l.118.227h4.223a13.853 13.853 0 0 1-.379-2.171l-.577-4.729-2.176-.351a14.154 14.154 0 0 1 .38 2.148l.326 3.022a14.26 14.26 0 0 1 .113 1.734v.073l-.087-.213a5.371 5.371 0 0 1-.3-1.584l-.091-.97c-.115-1.536-.96-2.236-2.793-2.236a7.334 7.334 0 0 0-1.565.214l.128 1.749.489-.3a1.976 1.976 0 0 1 1.078-.35.562.562 0 0 1 .569.308 4.526 4.526 0 0 0-1.176.345 2.141 2.141 0 0 0-1.241 1.21v-.042l-.075-1.6a1.6 1.6 0 0 0-1.683-1.682 2.054 2.054 0 0 0-1.228.388 1.347 1.347 0 0 0-.065-.175l-.088-.186-1.878-.086a14.507 14.507 0 0 1 .225 1.65 2.2 2.2 0 0 0-.87-1.405 2.416 2.416 0 0 0-1.391-.408 2.686 2.686 0 0 0-1.882.783 2.82 2.82 0 0 0-.764 1.928 2.188 2.188 0 0 0-.706-.5l-.863-.412-.043-.02c-.207-.1-.214-.13-.21-.187.008-.088.206-.183.49-.183a2.681 2.681 0 0 1 1.283.445l.035-1.544a3.219 3.219 0 0 0-1.349-.253 3.082 3.082 0 0 0-1.467.346 2.239 2.239 0 0 0-.4.282l.023-.453a1.86 1.86 0 0 0-1.688.534 2.7 2.7 0 0 0-.093-.374l-2.028.124a7.273 7.273 0 0 1 .128 2.1l-.038.774-.006.088c-.022.4-.046.818-.086 1.2-.169-.525-.355-1.239-.5-1.834l-1-4.508-2.859.409a1.614 1.614 0 0 1 .083.347 3.173 3.173 0 0 1-.254 1.371c-.459 1.337-1.121 3.311-1.751 4.675-.088.191-.239.5-.239.5h2.228a6.727 6.727 0 0 1 .319-1.344c.307-.007 1.116-.029 1.488-.039a9.767 9.767 0 0 1 .181 1.051l.024.332h4.484a12.188 12.188 0 0 1-.035-2.227 1.929 1.929 0 0 1 .426-1.3.853.853 0 0 1 .608-.264 1.548 1.548 0 0 0 1.019 1.475l.876.446c.315.165.309.249.3.306-.013.168-.266.233-.5.228a2.91 2.91 0 0 1-1.8-1.061l-.038 2a3.878 3.878 0 0 0 1.87.432 2.391 2.391 0 0 0 2.4-1.389 2.729 2.729 0 0 0 2.486 1.4 2.706 2.706 0 0 0 2.115-.894m-15.366-2c.116-.332.208-.6.406-1.165l.24 1.144-.646.021m12.52-.5v-.017c0-.679.254-.945.494-.968.072-.006.263-.024.35.294a1.1 1.1 0 0 1 .049.288c0 .185-.1.22-.216.262h-.007l-.665.255c0-.039-.005-.078-.005-.117m2.332 1.387a1.768 1.768 0 0 1-1.248.59.924.924 0 0 1-.8-.583l2.562-.962.012.81q.015.409.008.8v.01zm7.631.641a.415.415 0 0 1-.479-.442c0-.2.067-.5.688-.668l.031.425.014.193c.009.136.017.261.031.4a.532.532 0 0 1-.285.1" class="cls-4"/>
                <path id="Path_15156" d="M946.6-1623.945a2.926 2.926 0 0 0-1-.143 2.735 2.735 0 0 0-1.295.3 1.459 1.459 0 0 0-.8 1.1 1.183 1.183 0 0 0 .822 1.21c.345.173.673.34.881.449.279.145.519.324.495.646s-.327.549-.845.549a2.461 2.461 0 0 1-1.469-.635l-.018 1.006a3.708 3.708 0 0 0 1.511.294c.944 0 2.11-.432 2.13-1.534a1.336 1.336 0 0 0-.9-1.268c-.34-.158-.7-.332-.868-.413s-.481-.2-.453-.554c.028-.341.416-.5.837-.5a2.072 2.072 0 0 1 .958.239z" class="cls-3"/>
                <path id="Path_15157" d="M938.187-1625.76l-2.16.31a3.539 3.539 0 0 1-.265 1.533c-.454 1.327-1.186 3.458-1.767 4.718h1.363a7.248 7.248 0 0 1 .373-1.338l2.02-.053a12.092 12.092 0 0 1 .249 1.39h1.8a18.587 18.587 0 0 1-.689-2.374zm-2.16 4.429l.989-2.845.587 2.792z" class="cls-3"/>
                <path id="Path_15158" d="M943.4-1623.937l-.047.958a1.233 1.233 0 0 0-1.054.361 2.235 2.235 0 0 0-.521 1.519 13.858 13.858 0 0 0-.006 1.9h-1.544a16.807 16.807 0 0 0 .17-1.885l.04-.771a8.147 8.147 0 0 0-.059-1.8l1.347-.083a2.9 2.9 0 0 1 .079.865c.589-.885 1.165-1.085 1.6-1.065" class="cls-3"/>
                <path id="Path_15159" d="M962.7-1625.444l-1.392-.225a13.429 13.429 0 0 1 .262 1.672l.326 3.023a14.84 14.84 0 0 1 .116 1.774h1.507a15.082 15.082 0 0 1-.274-1.774z" class="cls-3"/>
                <path id="Path_15160" d="M956.466-1619.2a14.59 14.59 0 0 1-.149-1.775l-.075-1.6a1.262 1.262 0 0 0-1.339-1.354 1.755 1.755 0 0 0-1.436.721 3.114 3.114 0 0 0-.168-.7l-1.225-.056a13.237 13.237 0 0 1 .162 1.816l.018 1.176a14.155 14.155 0 0 1-.04 1.775h1.545a14.8 14.8 0 0 1-.149-1.775l-.036-1.357a.736.736 0 0 1 .714-.793c.429-.006.64.278.656.71l.051 1.44a14.5 14.5 0 0 1-.016 1.775z" class="cls-3"/>
                <path id="Path_15161" d="M961.244-1619.2a5.856 5.856 0 0 1-.322-1.688l-.09-.966c-.086-1.14-.565-1.922-2.45-1.922a6.1 6.1 0 0 0-1.186.138l.064.876a2.348 2.348 0 0 1 1.264-.4.883.883 0 0 1 .979.956 4.6 4.6 0 0 0-1.453.369 1.576 1.576 0 0 0-1.11 1.51c.062.873.72 1.253 1.55 1.253a1.808 1.808 0 0 0 1.3-.568 1.932 1.932 0 0 0 .174.446zm-2.234-.626a.733.733 0 0 1-.828-.77c-.014-.5.33-.945 1.36-1.115l.06.823c.021.282.029.483.064.755a.917.917 0 0 1-.656.307" class="cls-3"/>
                <path id="Path_15162" d="M950.8-1623.8a2.054 2.054 0 0 0-1.191-.345 2.313 2.313 0 0 0-2.3 2.563 2.34 2.34 0 0 0 2.462 2.429 2.34 2.34 0 0 0 1.85-.772l-.309-.392a1.76 1.76 0 0 1-1.2.448 1.394 1.394 0 0 1-1.254-1.136l2.773-1.041a2.229 2.229 0 0 0-.839-1.754m-.96 1.793l-1.1.424a4.712 4.712 0 0 1-.044-.612c-.007-1.145.61-1.316.812-1.335a.66.66 0 0 1 .722.551c.123.446.092.8-.387.972" class="cls-3"/>
                <path id="Path_15163" d="M941.59-1591.991a33.562 33.562 0 0 1-5.669-7.48 31.565 31.565 0 0 1-3.23-8.8 35.112 35.112 0 0 1-.64-9.621 86.364 86.364 0 0 1 2.063-12.326q-1.473.517-2.919 1.141a64.7 64.7 0 0 0-1.852 12.836 32.38 32.38 0 0 0 1.393 9.649 29.836 29.836 0 0 0 4.016 8.356 33.723 33.723 0 0 0 6.35 6.935 40.308 40.308 0 0 0 7.849 5.049 40.346 40.346 0 0 1-7.361-5.739" class="cls-7"/>
                <path id="Path_15164" d="M956.314-1591.99a33.563 33.563 0 0 0 5.669-7.48 31.56 31.56 0 0 0 3.229-8.8 35.074 35.074 0 0 0 .64-9.621 86.444 86.444 0 0 0-2.065-12.33c.983.345 1.961.727 2.924 1.143a64.7 64.7 0 0 1 1.85 12.838 32.383 32.383 0 0 1-1.393 9.649 30.9 30.9 0 0 1-4.016 8.356 33.747 33.747 0 0 1-6.35 6.935 40.345 40.345 0 0 1-7.85 5.049 40.355 40.355 0 0 0 7.362-5.739" class="cls-7"/>
                <path id="Path_15165" d="M954.125-1586.437a.862.862 0 0 1 .859.874.862.862 0 0 1-.862.879.868.868 0 0 1-.867-.879.869.869 0 0 1 .867-.874zm0 .136a.721.721 0 0 0-.7.738.719.719 0 0 0 .7.742.713.713 0 0 0 .7-.738.719.719 0 0 0-.7-.742zm-.163 1.248h-.162v-.976a1.7 1.7 0 0 1 .276-.023.517.517 0 0 1 .3.073.236.236 0 0 1 .09.2.242.242 0 0 1-.191.236v.009c.086.015.143.093.163.236a.817.817 0 0 0 .063.242h-.163a.7.7 0 0 1-.066-.249.183.183 0 0 0-.211-.171h-.108zm0-.541h.112c.128 0 .238-.047.238-.167 0-.085-.063-.171-.238-.171a.715.715 0 0 0-.112.008z" class="cls-3"/>
                <path id="Path_15166" d="M937.56-1608.209a2.04 2.04 0 0 1-1.836-1.587h-.7c-.182 0-.452-.219-.452-.884s.27-.885.452-.885h.7a2.043 2.043 0 0 1 1.837-1.59h6.767a8.155 8.155 0 0 0-3.313 4.862c-1.5.052-2.647.084-3.454.084" class="cls-4"/>
                <path id="Path_15167" d="M967.859-1630.053a45.891 45.891 0 0 0-18.906-4.034 45.89 45.89 0 0 0-18.905 4.034 65.381 65.381 0 0 0-2.054 13.8 33.724 33.724 0 0 0 1.452 10.049 32.192 32.192 0 0 0 4.191 8.721 35.04 35.04 0 0 0 6.6 7.214 38.964 38.964 0 0 0 8.712 5.518 38.971 38.971 0 0 0 8.713-5.518 35.071 35.071 0 0 0 6.6-7.214 32.193 32.193 0 0 0 4.191-8.721 33.722 33.722 0 0 0 1.452-10.049 65.382 65.382 0 0 0-2.054-13.8m-4.7 31.815a33.705 33.705 0 0 1-6.351 6.935 40.288 40.288 0 0 1-7.853 5.049 40.276 40.276 0 0 1-7.848-5.049 33.7 33.7 0 0 1-6.351-6.935q-.206-.3-.4-.608a24.929 24.929 0 0 0 7.9-2.971 8.085 8.085 0 0 1-1.313-3.147 13.325 13.325 0 0 1-2.3 2.257 17.008 17.008 0 0 1-5.012 2.7 30.79 30.79 0 0 1-2.895-6.582 32.367 32.367 0 0 1-1.392-9.647 64.629 64.629 0 0 1 1.852-12.837 44.527 44.527 0 0 1 17.757-3.659 44.535 44.535 0 0 1 17.758 3.659 64.629 64.629 0 0 1 1.852 12.837q.008 1.56-.125 3.087h-14.868a8.138 8.138 0 0 1 3.447 5.6l2.837-.676a1.163 1.163 0 0 0 .961-.961l7.137-.483a31.11 31.11 0 0 1-.774 3.085 30.842 30.842 0 0 1-4.015 8.356" class="cls-4"/>
                <path id="Path_15168" d="M949.671-1606.45a.725.725 0 0 0-.724-.725.726.726 0 0 0-.725.725.725.725 0 0 0 .725.724.725.725 0 0 0 .724-.724" class="cls-4"/>
            </g>
        </g>
    </g>
</svg>
