<svg xmlns="http://www.w3.org/2000/svg" width="51.53" height="39.782" viewBox="0 0 51.53 39.782">
    <defs>
        <style>
            .cls-1{fill:#999eb2}
        </style>
    </defs>
    <g id="Group_9716" transform="translate(-670 -1297)">
        <g id="Group_9464" transform="translate(670.803 1296.991)">
            <g id="Group_9463" transform="translate(7.356 33.88)">
                <path id="Path_14974" d="M375.863 50.734a1.388 1.388 0 0 1 .657.109l-.328.876a1.19 1.19 0 0 0-.547-.109c-.657 0-.876.438-.876 1.095v2.408h-.985v-4.269h.876v.547a1.373 1.373 0 0 1 1.2-.657m-3.5.985h-1.532v1.97c0 .438.109.766.657.766a3.384 3.384 0 0 0 .876-.219l.219.766a2.207 2.207 0 0 1-1.2.328c-1.095 0-1.532-.547-1.532-1.642v-1.97h-.876v-.876h.876V49.53h.985v1.314h1.532zm-11.931.876c.109-.657.438-1.095 1.095-1.095s.985.328 1.095 1.095zm3.174.438a2.136 2.136 0 0 0-2.08-2.3 2.3 2.3 0 0 0 0 4.6 2.218 2.218 0 0 0 1.751-.657l-.438-.657a1.646 1.646 0 0 1-1.2.438 1.213 1.213 0 0 1-1.314-1.095h3.174a.4.4 0 0 0 .109-.328m4.159-1.095a3.239 3.239 0 0 0-1.314-.328c-.547 0-.766.219-.766.547s.328.328.766.438l.438.109c.985.109 1.532.547 1.532 1.314s-.766 1.423-1.97 1.423a3.69 3.69 0 0 1-1.861-.547l.438-.766a2.437 2.437 0 0 0 1.423.438c.657 0 .985-.219.985-.547 0-.219-.219-.328-.766-.438l-.438-.109c-.985-.109-1.532-.547-1.532-1.314 0-.876.657-1.423 1.751-1.423a2.984 2.984 0 0 1 1.751.438zm11.493-.328a.987.987 0 0 0-.547.109c-.219.109-.328.109-.438.328s-.219.219-.328.438a.987.987 0 0 0-.109.547.82.82 0 0 0 .109.547c.109.219.109.328.328.438s.219.219.438.328a1.423 1.423 0 0 0 1.095 0c.219-.109.328-.109.438-.328a1.51 1.51 0 0 0 .328-.438.987.987 0 0 0 .109-.547.82.82 0 0 0-.109-.547 1.935 1.935 0 0 0-.766-.766.82.82 0 0 0-.547-.109m0-.876a2.062 2.062 0 0 1 .876.219 4.759 4.759 0 0 1 .766.438 1.764 1.764 0 0 1 .438.766 2.577 2.577 0 0 1 .219.876 2.062 2.062 0 0 1-.219.876 4.762 4.762 0 0 1-.438.766 1.764 1.764 0 0 1-.766.438 2.576 2.576 0 0 1-.876.219 2.062 2.062 0 0 1-.876-.219 4.759 4.759 0 0 1-.766-.438 1.764 1.764 0 0 1-.438-.766 2.576 2.576 0 0 1-.219-.876 2.062 2.062 0 0 1 .219-.876 4.757 4.757 0 0 1 .438-.766 1.764 1.764 0 0 1 .766-.438 1.179 1.179 0 0 1 .876-.219m-24.3 2.3a1.357 1.357 0 0 1 1.314-1.423 1.3 1.3 0 0 1 1.314 1.423 1.357 1.357 0 0 1-1.314 1.423 1.417 1.417 0 0 1-1.314-1.423m3.5 0v-2.191h-.985v.547a1.56 1.56 0 0 0-1.314-.657 2.3 2.3 0 0 0 0 4.6 1.324 1.324 0 0 0 1.314-.657v.547h.985zm-5.363 2.08v-2.739a1.734 1.734 0 0 0-3.174-.985 1.708 1.708 0 0 0-1.423-.766 1.54 1.54 0 0 0-1.314.657v-.547h-.984V55h.985v-2.405a.982.982 0 0 1 1.095-1.095c.657 0 .985.438.985 1.095V55h.985v-2.405a.982.982 0 0 1 1.095-1.095c.657 0 .985.438.985 1.095V55h.766z" class="cls-1" transform="translate(-346.2 -49.53)"/>
            </g>
        </g>
        <g id="Group_9516" transform="translate(-6939.915 -2759.284)">
            <path id="Path_15076" d="M7634.257 4085.207a17.2 17.2 0 0 1 0-25.937c.125-.109.256-.213.385-.32a15.819 15.819 0 0 0-8.811-2.667 15.955 15.955 0 1 0 8.808 29.244c-.13-.107-.263-.211-.385-.321z" class="cls-1"/>
            <path id="Path_15077" d="M7645.5 4056.284a15.819 15.819 0 0 0-8.811 2.667c.129.107.26.21.385.32a17.2 17.2 0 0 1 .005 25.937c-.123.109-.256.214-.385.321a15.942 15.942 0 1 0 8.811-29.244z" class="cls-1" transform="translate(.026)"/>
            <path id="Path_15078" d="M7641.74 4072.241a15.906 15.906 0 0 0-5.471-12.026c-.2-.171-.4-.338-.6-.5-.205.162-.406.329-.6.5a15.94 15.94 0 0 0 0 24.049q.294.259.6.5.308-.245.6-.5a15.9 15.9 0 0 0 5.471-12.023z" class="cls-1" transform="translate(.013)"/>
        </g>
    </g>
</svg>
