<svg xmlns="http://www.w3.org/2000/svg" id="Group_9711" width="55.605" height="34.677" viewBox="0 0 55.605 34.677">
    <defs>
        <style>
            .cls-1{fill:#999eb2;fill-rule:evenodd}
        </style>
    </defs>
    <path id="Path_14907" d="M55.605 46.477H.088L0 11.8h2.452v23.993a2.728 2.728 0 0 0 2.715 2.715h50.438" class="cls-1" transform="translate(0 -11.8)"/>
    <path id="Path_14908" d="M24 33.137L26.452 17.9h3.941l-2.452 15.237z" class="cls-1" transform="translate(-2.984 -12.558)"/>
    <path id="Path_14909" d="M43.134 18.313a8.98 8.98 0 0 0-3.5-.613c-3.853 0-6.655 2.1-6.655 5.079 0 2.189 1.926 3.415 3.415 4.116 1.489.788 2.014 1.226 2.014 1.926 0 1.051-1.226 1.489-2.364 1.489a8.106 8.106 0 0 1-3.59-.963l-.525-.175-.529 3.414a11.513 11.513 0 0 0 4.378.788c4.116 0 6.83-2.014 6.83-5.166 0-1.751-1.051-3.065-3.328-4.116-1.4-.7-2.189-1.138-2.189-1.839 0-.613.7-1.314 2.277-1.314a6.171 6.171 0 0 1 2.89.613l.35.175.525-3.415z" class="cls-1" transform="translate(-3.904 -12.534)"/>
    <path id="Path_14910" d="M54.746 17.9h-3.065a1.837 1.837 0 0 0-2.014 1.226L43.8 33.049h4.116s.7-1.839.788-2.277h5.079c.088.525.438 2.277.438 2.277h3.765zm-4.816 9.9c.35-.876 1.576-4.291 1.576-4.291s.35-.876.525-1.489l.263 1.314s.788 3.678.876 4.378c-.613.088-2.452.088-3.24.088z" class="cls-1" transform="translate(-5.445 -12.558)"/>
    <path id="Path_14911" d="M18.92 17.9l-3.853 10.421-.438-2.1A11.7 11.7 0 0 0 9.2 19.826l3.5 13.31h4.2L23.036 17.9z" class="cls-1" transform="translate(-1.144 -12.558)"/>
    <path id="Path_14912" d="M10.892 17.9h-6.3l-.088.35c4.9 1.226 8.231 4.291 9.545 7.969l-1.4-7.005c-.175-.963-.876-1.226-1.751-1.314z" class="cls-1" transform="translate(-.559 -12.558)"/>
</svg>
