<svg xmlns="http://www.w3.org/2000/svg" id="Group_9713" width="42.908" height="42.821" viewBox="0 0 42.908 42.821">
    <defs>
        <style>
            .cls-1{fill:#999eb2}
        </style>
    </defs>
    <path id="Rectangle_2213" d="M0 0H1.226V4.991H0z" class="cls-1" transform="translate(24.169 15.675)"/>
    <path id="Path_14975" d="M704.846 33h-3.853l-1.493 1.664L698.016 33H693.2v4.991h4.729l1.576-1.664 1.489 1.664h2.364v-1.663h1.489c1.051 0 2.1-.263 2.1-1.664-.086-1.401-1.137-1.664-2.101-1.664zm-7.531 3.941h-2.977v-.963h2.627v-1.052h-2.627v-.876h2.977l1.314 1.489zm4.729.613l-1.839-2.014 1.839-2.014zm2.8-2.277h-1.574v-1.314h1.576c.438 0 .7.175.7.613a.644.644 0 0 1-.7.701z" class="cls-1" transform="translate(-683.655 -8.656)"/>
    <path id="Path_14976" d="M714.352 28.091h1.4l.438-1.138h2.452l.438 1.138h2.452v-3.765l2.277 3.765h1.664V23.1h-1.226v3.5l-2.1-3.5h-1.839v4.729l-2.016-4.729h-1.839l-1.664 3.941h-.525a1.69 1.69 0 0 1-.876-.263 1.486 1.486 0 0 1-.35-1.138 1.76 1.76 0 0 1 .35-1.138c.263-.263.525-.263.963-.263h1.138v-1.051h-1.138a2.467 2.467 0 0 0-1.839.613 2.564 2.564 0 0 0-.613 1.926 2.971 2.971 0 0 0 .613 1.926 3.367 3.367 0 0 0 1.84.438zm3.065-4.116l.788 2.014h-1.664z" class="cls-1" transform="translate(-685.98 -7.425)"/>
    <path id="Path_14977" d="M704.738 26.328h1.313c.438 0 .7 0 .876.175a1.886 1.886 0 0 1 .175.963v.613h1.226v-.963a1.59 1.59 0 0 0-.175-.963 1.571 1.571 0 0 0-.613-.438 1.533 1.533 0 0 0 .876-1.314 1.276 1.276 0 0 0-.613-1.138 2.533 2.533 0 0 0-1.488-.263H703.6v4.991h1.226v-1.663zm.088-2.189h1.489a1.111 1.111 0 0 1 .525.088.5.5 0 0 1 0 .876 1.3 1.3 0 0 1-.613.088h-1.4z" class="cls-1" transform="translate(-684.948 -7.413)"/>
    <path id="Path_14978" d="M702.041 27.041h-2.8v-.963h2.8v-1.052h-2.8v-.876h2.8V23.1H698.1v4.991h3.941z" class="cls-1" transform="translate(-684.264 -7.425)"/>
    <path id="Path_14979" d="M714.316 34.3a1.5 1.5 0 0 0-.613-1.138 3.334 3.334 0 0 0-1.4-.263h-2.8v4.991h1.226v-1.838h1.314c.438 0 .7 0 .876.175.263.263.175.7.175.963v.61h1.226v-.963c0-.438 0-.7-.175-.876a1.571 1.571 0 0 0-.613-.438 1.2 1.2 0 0 0 .784-1.223zm-1.576.7a1.49 1.49 0 0 1-.613.088h-1.489v-1.137h1.489a1.71 1.71 0 0 1 .613.088.481.481 0 0 1 .263.438 1.426 1.426 0 0 1-.263.523z" class="cls-1" transform="translate(-685.682 -8.644)"/>
    <path id="Path_14980" d="M724.928 35.364a2.388 2.388 0 0 0-1.4-.438h-.613a.656.656 0 0 1-.438-.088c-.175-.088-.263-.175-.263-.35a.455.455 0 0 1 .175-.35.952.952 0 0 1 .438-.088h2.189V33h-2.364a1.553 1.553 0 0 0-1.751 1.489c0 1.576 1.4 1.489 2.539 1.576a.79.79 0 0 1 .438.088.455.455 0 0 1 .175.35.664.664 0 0 1-.175.35.579.579 0 0 1-.525.088h-2.364v1.051h2.364c1.226 0 1.927-.525 1.927-1.576a1.4 1.4 0 0 0-.35-1.051z" class="cls-1" transform="translate(-687.099 -8.656)"/>
    <path id="Path_14981" d="M716.926 35.977h2.715v-1.051h-2.715v-.963h2.8V33H715.7v4.991h4.028v-1.05h-2.8z" class="cls-1" transform="translate(-686.452 -8.656)"/>
    <path id="Path_14982" d="M684.064 26.953h2.536l.438 1.138h2.452v-3.94l1.751 3.941h1.059l1.751-3.941v3.941h1.226V23.1h-2.014l-1.4 3.415-1.582-3.415h-1.926v4.729l-2.014-4.729h-1.751l-2.19 4.991h1.313zm1.226-2.977l.788 2.014h-1.664z" class="cls-1" transform="translate(-682.312 -7.425)"/>
    <path id="Path_14983" d="M682.3 5.2v42.821h42.908V5.2zm7.969 20.841v.876h-4.029l-.438-1.138h-1.051l-.438 1.138H682.3v-3.678l1.489-3.328h3.152l.438.788v-.788h3.678l.788 1.839.7-1.839h11.646a1.72 1.72 0 0 1 1.314.438v-.438h3.152v.438a5.194 5.194 0 0 1 2.014-.438h4.641l.438.788v-.788h3.415l.438.788v-.788h3.328v7.005H719.6l-.613-1.051v1.051h-4.2l-.438-1.138H713.3l-.438 1.138h-2.189a4.772 4.772 0 0 1-1.927-.438v.438h-5.167v-1.575c0-.263 0-.263-.175-.263h-.175v1.839h-9.983v-.876l-.35.876h-2.1zm34.677 9.107a3.92 3.92 0 0 1-1.751.35h-3.065v-.438a3.115 3.115 0 0 1-1.664.438h-9.807v-1.576c0-.175 0-.175-.175-.175h-.175v1.839h-3.24v-1.927a5.5 5.5 0 0 1-1.664.263h-.35v1.664h-3.941l-.963-1.051-1.051 1.051h-6.3v-7.005h6.48l.963 1.051.963-1.051h4.291a2.643 2.643 0 0 1 1.664.438v-.438h3.853a2.881 2.881 0 0 1 1.576.438v-.438h5.867v.438a2.228 2.228 0 0 1 1.4-.438h3.24v.438a2.952 2.952 0 0 1 1.489-.438h2.189v.963h-2.364a1.553 1.553 0 0 0-1.751 1.489c0 1.576 1.4 1.489 2.539 1.576a.79.79 0 0 1 .438.088.455.455 0 0 1 .175.35.664.664 0 0 1-.175.35.579.579 0 0 1-.525.088h-2.282v1.051h2.277a1.949 1.949 0 0 0 1.664-.613v1.226zm0-4.554V32a.086.086 0 0 0-.088-.088 2.388 2.388 0 0 0-1.4-.438h-.613a.656.656 0 0 1-.438-.088c-.175-.088-.263-.175-.263-.35a.455.455 0 0 1 .175-.35 1.111 1.111 0 0 1 .525-.088z" class="cls-1" transform="translate(-682.3 -5.2)"/>
</svg>
