<svg xmlns="http://www.w3.org/2000/svg" width="51.53" height="49.125" viewBox="0 0 51.53 49.125">
    <defs>
        <style>
            .cls-1{fill:#999eb2}
        </style>
    </defs>
    <g id="Group_9715" transform="translate(-583 -1287.499)">
        <g id="Group_9456" transform="translate(598 1287.499)">
            <path id="Path_14960" d="M258.189 2.189a2.591 2.591 0 0 1 .876.175 1.177 1.177 0 0 1 .613.525V0h.788v6.655h-.788v-.613a3.811 3.811 0 0 1-.613.525 2.277 2.277 0 0 1-1.751 0 1.837 1.837 0 0 1-1.138-1.138 3.112 3.112 0 0 1-.176-.875 2.591 2.591 0 0 1 .175-.876 1.837 1.837 0 0 1 1.138-1.138 1.042 1.042 0 0 1 .876-.351zm.088.7a1.3 1.3 0 0 0-.613.088.874.874 0 0 0-.438.35.757.757 0 0 0-.263.525 1.49 1.49 0 0 0-.088.613 1.49 1.49 0 0 0 .088.613 1.832 1.832 0 0 0 .35.525 1.537 1.537 0 0 0 .438.35 2.189 2.189 0 0 0 1.226 0 .874.874 0 0 0 .438-.35 1.831 1.831 0 0 0 .35-.525 1.49 1.49 0 0 0 .088-.613 1.3 1.3 0 0 0-.088-.613 1.831 1.831 0 0 0-.35-.525 1.537 1.537 0 0 0-.438-.35 1.928 1.928 0 0 0-.7-.087zm5.6-.7a2.091 2.091 0 0 1 .788.175 1.571 1.571 0 0 1 .613.438 1.907 1.907 0 0 1 .438.7 3.148 3.148 0 0 1 .175.963v.35h-3.411a1.265 1.265 0 0 0 .175.613.874.874 0 0 0 .35.438c.175.088.263.175.438.263a1.111 1.111 0 0 0 .525.088 1.65 1.65 0 0 0 .7-.175 3.809 3.809 0 0 0 .613-.35l.438.525c-.175.088-.263.263-.438.35s-.263.175-.438.175a.789.789 0 0 1-.438.088h-.438a2.591 2.591 0 0 1-.876-.175 1.837 1.837 0 0 1-1.138-1.138 3.148 3.148 0 0 1-.175-.963 3.725 3.725 0 0 1 .175-.963 1.837 1.837 0 0 1 1.138-1.138c.177-.264.527-.264.79-.264zm0 .613a1.111 1.111 0 0 0-.525.088c-.175.088-.263.175-.438.263a1.913 1.913 0 0 0-.263.438c-.088.175-.088.35-.175.525h2.715a1.245 1.245 0 0 0-.175-.525c-.088-.175-.175-.263-.263-.438s-.263-.175-.35-.263c-.172 0-.347-.09-.522-.09zm5.6-.613a2.591 2.591 0 0 1 .876.175A1.837 1.837 0 0 1 271.5 3.5a3.112 3.112 0 0 1 .175.876 2.591 2.591 0 0 1-.175.876 1.837 1.837 0 0 1-1.138 1.138 2.277 2.277 0 0 1-1.751 0 1.177 1.177 0 0 1-.611-.523v.613h-.788V0H268v2.89a3.808 3.808 0 0 1 .613-.525 2.2 2.2 0 0 1 .872-.176zm-.088.7a1.3 1.3 0 0 0-.613.088.874.874 0 0 0-.438.35 1.831 1.831 0 0 0-.35.525 1.49 1.49 0 0 0-.088.613 1.3 1.3 0 0 0 .088.613 1.831 1.831 0 0 0 .35.525 1.537 1.537 0 0 0 .438.35 2.189 2.189 0 0 0 1.226 0 .874.874 0 0 0 .438-.35.757.757 0 0 0 .263-.525 1.49 1.49 0 0 0 .088-.613 1.3 1.3 0 0 0-.088-.613 1.832 1.832 0 0 0-.35-.525 1.537 1.537 0 0 0-.438-.35c-.079-.087-.342-.087-.515-.087zm3.862-2.714h.175c.088 0 .088.088.175.088.088.088.088.088.088.175v.35c0 .088-.088.088-.088.175s-.088.088-.175.088h-.35c-.088 0-.088-.088-.175-.088s-.088-.088-.088-.175v-.35c0-.088.088-.088.088-.175.088-.088.088-.088.175-.088zm.35 6.48h-.788V2.277h.788zm4.553-3.678h-1.839v2.1a.656.656 0 0 0 .088.438c0 .088.088.175.175.263s.175.175.263.175.175.088.35.088a.656.656 0 0 0 .438-.088c.175-.088.263-.088.438-.175l.35.525a3.808 3.808 0 0 1-.613.35 1.928 1.928 0 0 1-.7.088 1.3 1.3 0 0 1-.613-.088 1.914 1.914 0 0 1-.438-.263.624.624 0 0 1-.263-.525 1.707 1.707 0 0 1-.088-.7V2.977h-.963v-.7h.963V.876h.788v1.4h1.839v.7z" class="cls-1" transform="translate(-256)"/>
        </g>
        <g id="Group_9457" transform="translate(585 1330.407)">
            <path id="Path_14961" d="M246.679 50.8a1.629 1.629 0 0 0-1.489.788 1.658 1.658 0 0 0-1.4-.788 1.455 1.455 0 0 0-1.314.613v-.438h-.876v4.291h.876v-2.54a1.037 1.037 0 0 1 1.051-1.138c.613 0 .963.438.963 1.138v2.452h.876v-2.452a1.037 1.037 0 0 1 1.051-1.138c.613 0 .963.438.963 1.138v2.452h.876v-2.714a1.455 1.455 0 0 0-1.577-1.664z" class="cls-1" transform="translate(-241.6 -49.224)"/>
            <path id="Path_14962" d="M263.864 54.316c-.438 0-.613-.263-.613-.7V51.6h1.576v-.788h-1.576V49.5h-.876v1.314h-.875v.786h.876v2.014c0 .963.35 1.576 1.489 1.576a1.615 1.615 0 0 0 1.138-.35l-.263-.788a1.69 1.69 0 0 1-.876.264z" class="cls-1" transform="translate(-244.074 -49.062)"/>
            <path id="Path_14963" d="M272.876 51.423v-.438H272v4.291h.876v-2.452c0-.7.35-1.138.963-1.138a1.709 1.709 0 0 1 .613.088l.263-.788a1.707 1.707 0 0 0-.7-.088 1.126 1.126 0 0 0-1.139.525z" class="cls-1" transform="translate(-245.379 -49.234)"/>
            <path id="Path_14964" d="M258.664 52.639l-.438-.088c-.438-.088-.788-.175-.788-.438 0-.35.35-.525.876-.525a2.611 2.611 0 0 1 1.314.35l.438-.7a3.449 3.449 0 0 0-1.751-.438c-1.051 0-1.751.525-1.751 1.4 0 .7.525 1.138 1.4 1.226l.438.088q.788.131.788.525 0 .525-1.051.525a1.9 1.9 0 0 1-1.4-.438l-.438.7a3.3 3.3 0 0 0 1.839.525c1.226 0 1.926-.613 1.926-1.4.087-.787-.438-1.137-1.402-1.312z" class="cls-1" transform="translate(-243.428 -49.224)"/>
            <path id="Path_14965" d="M277.677 51.576a2.484 2.484 0 0 1 1.138.35l.438-.7a2.285 2.285 0 0 0-1.576-.525 2.277 2.277 0 1 0 0 4.554 2.623 2.623 0 0 0 1.576-.525l-.438-.7a1.76 1.76 0 0 1-1.138.35 1.392 1.392 0 0 1-1.314-1.489 1.412 1.412 0 0 1 1.314-1.315z" class="cls-1" transform="translate(-245.802 -49.211)"/>
            <path id="Path_14966" d="M268.3 50.8a2.281 2.281 0 0 0 .088 4.554 2.677 2.677 0 0 0 1.751-.613l-.438-.613a2.092 2.092 0 0 1-1.226.438 1.246 1.246 0 0 1-1.314-1.138h3.24v-.35A2.174 2.174 0 0 0 268.3 50.8zm-1.226 1.926a1.167 1.167 0 0 1 1.226-1.051 1.143 1.143 0 0 1 1.138 1.051z" class="cls-1" transform="translate(-244.658 -49.224)"/>
            <path id="Path_14967" d="M253.8 51.413a1.765 1.765 0 0 0-1.4-.613 2.284 2.284 0 0 0 0 4.554 1.905 1.905 0 0 0 1.4-.613v.525h.876v-4.291h-.876zm-1.226 3.152a1.5 1.5 0 1 1 1.314-1.489 1.34 1.34 0 0 1-1.311 1.489z" class="cls-1" transform="translate(-242.682 -49.224)"/>
            <path id="Path_14968" d="M287.676 51.423v-.438h-.876v4.291h.876v-2.452c0-.7.35-1.138.963-1.138a1.71 1.71 0 0 1 .613.088l.263-.788a1.707 1.707 0 0 0-.7-.088 1.127 1.127 0 0 0-1.139.525z" class="cls-1" transform="translate(-247.219 -49.234)"/>
            <path id="Path_14969" d="M283.9 51.413a1.764 1.764 0 0 0-1.4-.613 2.284 2.284 0 0 0 0 4.554 1.9 1.9 0 0 0 1.4-.613v.525h.876v-4.291h-.876zm-1.314 3.152a1.5 1.5 0 1 1 1.314-1.489 1.34 1.34 0 0 1-1.311 1.489z" class="cls-1" transform="translate(-246.424 -49.224)"/>
            <path id="Path_14970" d="M293.8 49v2.277a1.764 1.764 0 0 0-1.4-.613 2.284 2.284 0 0 0 0 4.554 1.9 1.9 0 0 0 1.4-.613v.525h.876V49zm-1.314 5.342a1.5 1.5 0 1 1 1.314-1.489 1.34 1.34 0 0 1-1.311 1.489z" class="cls-1" transform="translate(-247.655 -49)"/>
        </g>
        <g id="Group_9515" transform="translate(-7026.915 -2759.284)">
            <path id="Path_15076" d="M7634.257 4085.207a17.2 17.2 0 0 1 0-25.937c.125-.109.256-.213.385-.32a15.819 15.819 0 0 0-8.811-2.667 15.955 15.955 0 1 0 8.808 29.244c-.13-.107-.263-.211-.385-.321z" class="cls-1"/>
            <path id="Path_15077" d="M7645.5 4056.284a15.819 15.819 0 0 0-8.811 2.667c.129.107.26.21.385.32a17.2 17.2 0 0 1 .005 25.937c-.123.109-.256.214-.385.321a15.942 15.942 0 1 0 8.811-29.244z" class="cls-1" transform="translate(.026)"/>
            <path id="Path_15078" d="M7641.74 4072.241a15.906 15.906 0 0 0-5.471-12.026c-.2-.171-.4-.338-.6-.5-.205.162-.406.329-.6.5a15.94 15.94 0 0 0 0 24.049q.294.259.6.5.308-.245.6-.5a15.9 15.9 0 0 0 5.471-12.023z" class="cls-1" transform="translate(.013)"/>
        </g>
    </g>
</svg>
