<svg xmlns="http://www.w3.org/2000/svg" id="Group_9710" width="90.99" height="31.174" viewBox="0 0 90.99 31.174">
    <defs>
        <style>
            .cls-1{fill:#999eb2}
        </style>
    </defs>
    <path id="Path_14899" d="M1246.887 11.1a15.587 15.587 0 1 0 15.587 15.587 15.621 15.621 0 0 0-15.587-15.587zm.263 11.121l-4.028 10.07a1.5 1.5 0 0 1-1.4.963 1.421 1.421 0 0 1-1.4-.963l-4.028-10.07a1.11 1.11 0 0 1-.088-.525 1.554 1.554 0 0 1 1.489-1.576 1.42 1.42 0 0 1 1.4.963l2.627 6.568 2.627-6.568a1.5 1.5 0 0 1 1.4-.963 1.578 1.578 0 0 1 1.4 2.1zm10.508 9.545a1.5 1.5 0 0 1-2.715.876l-4.291-6.13v5.254a1.5 1.5 0 0 1-1.576 1.489 1.476 1.476 0 0 1-1.489-1.489V21.608a1.5 1.5 0 0 1 1.576-1.489 1.4 1.4 0 0 1 1.226.7l4.291 6.13V21.7a1.5 1.5 0 0 1 1.576-1.489 1.476 1.476 0 0 1 1.489 1.489v10.07z" class="cls-1" transform="translate(-1231.3 -11.1)"/>
    <path id="Path_14900" d="M1275.2 21.4a6.573 6.573 0 1 0 6.3 6.568 6.45 6.45 0 0 0-6.3-6.568zm0 10.07a3.513 3.513 0 0 1 0-7.005 3.352 3.352 0 0 1 3.24 3.5 3.352 3.352 0 0 1-3.24 3.505z" class="cls-1" transform="translate(-1235.975 -12.381)"/>
    <path id="Path_14901" d="M1290.192 21.925A5.238 5.238 0 0 0 1288 21.4h-2.714a1.476 1.476 0 0 0-1.489 1.489v10.07a1.476 1.476 0 0 0 1.489 1.489 1.553 1.553 0 0 0 1.576-1.489v-2.54h1.226a4.343 4.343 0 0 0 4.028-2.364 5.24 5.24 0 0 0 .525-2.189 4.382 4.382 0 0 0-2.449-3.941zm-.876 4.9c-.175.35-.438.613-1.314.613h-1.226v-2.973H1288a2.648 2.648 0 0 1 .876.175c.35.175.7.438.7 1.314-.084 0-.084.437-.259.875z" class="cls-1" transform="translate(-1237.827 -12.381)"/>
    <path id="Path_14902" d="M1301.831 21.4h-6.042a1.476 1.476 0 0 0-1.489 1.489 1.553 1.553 0 0 0 1.489 1.576h1.489v8.582a1.476 1.476 0 0 0 1.489 1.489 1.553 1.553 0 0 0 1.576-1.489v-8.582h1.489a1.57 1.57 0 0 0 1.576-1.576 1.615 1.615 0 0 0-1.577-1.489z" class="cls-1" transform="translate(-1239.133 -12.381)"/>
    <path id="Path_14903" d="M1306.589 21.4a1.476 1.476 0 0 0-1.489 1.489v10.07a1.489 1.489 0 1 0 2.977 0v-10.07a1.535 1.535 0 0 0-1.488-1.489z" class="cls-1" transform="translate(-1240.475 -12.381)"/>
    <path id="Path_14904" d="M1315.2 21.4a6.573 6.573 0 1 0 6.3 6.568 6.45 6.45 0 0 0-6.3-6.568zm0 10.07a3.513 3.513 0 0 1 0-7.005 3.352 3.352 0 0 1 3.24 3.5 3.352 3.352 0 0 1-3.24 3.505z" class="cls-1" transform="translate(-1240.948 -12.381)"/>
    <path id="Path_14905" d="M1332.369 21.388a1.553 1.553 0 0 0-1.576 1.489v5.253L1326.5 22a1.509 1.509 0 0 0-1.226-.7 1.554 1.554 0 0 0-1.576 1.489v10.07a1.476 1.476 0 0 0 1.489 1.489 1.553 1.553 0 0 0 1.576-1.489V27.6l4.291 6.13a1.42 1.42 0 0 0 1.226.613 1.535 1.535 0 0 0 1.489-1.489v-9.978a1.4 1.4 0 0 0-1.4-1.488z" class="cls-1" transform="translate(-1242.788 -12.368)"/>
</svg>
