<svg xmlns="http://www.w3.org/2000/svg" id="Group_9712" width="92.384" height="23.818" viewBox="0 0 92.384 23.818">
    <defs>
        <style>
            .cls-1,.cls-2{fill:#999eb2}.cls-1{fill-rule:evenodd}
        </style>
    </defs>
    <g id="Group_9451" transform="translate(68.478)">
        <path id="Path_14933" d="M526.5 15.8a11.512 11.512 0 0 1 5.166 1.226 5.2 5.2 0 0 1 .7.35l-1.051.963-1.664-1.664-2.8 2.452-1.664-1.751-5.167 4.641 3.328 3.678-1.314 1.138 3.24 3.678-1.314 1.138 4.641 5.166 2.8-2.539 2.364 2.715a12.339 12.339 0 0 1-7.443 2.627A11.828 11.828 0 0 1 514.5 27.8a12.072 12.072 0 0 1 12-12z" class="cls-1" transform="translate(-514.5 -15.8)"/>
        <path id="Path_14934" d="M525.7 28.139l2.8-2.539 2.539 2.8-2.8 2.539z" class="cls-1" transform="translate(-515.892 -17.018)"/>
        <path id="Path_14935" d="M528 33.739l2.8-2.539 2.539 2.8-2.8 2.539z" class="cls-1" transform="translate(-516.178 -17.715)"/>
        <path id="Path_14936" d="M523.4 22.639l2.8-2.539 2.539 2.8-2.8 2.539z" class="cls-1" transform="translate(-515.607 -16.335)"/>
        <path id="Path_14937" d="M529.3 21.226l2.1-1.926 1.927 2.1-2.1 1.926z" class="cls-1" transform="translate(-516.34 -16.235)"/>
        <path id="Path_14938" d="M533.6 31.126l2.1-1.926 1.927 2.189-2.1 1.839z" class="cls-1" transform="translate(-516.875 -17.466)"/>
        <path id="Path_14939" d="M535.7 36.026l2.1-1.926 1.926 2.1-2.1 1.926z" class="cls-1" transform="translate(-517.136 -18.075)"/>
        <path id="Path_14940" d="M536.7 24.926l1.4-1.226 1.226 1.4-1.4 1.226z" class="cls-1" transform="translate(-517.26 -16.782)"/>
        <path id="Path_14941" d="M534.6 20.126L536 18.9l1.313 1.4-1.4 1.226z" class="cls-1" transform="translate(-516.999 -16.185)"/>
        <path id="Path_14942" d="M538.7 29.714l1.489-1.314 1.226 1.489-1.4 1.226z" class="cls-1" transform="translate(-517.509 -17.366)"/>
        <path id="Path_14943" d="M531.5 26.026l2.1-1.926 1.926 2.189-2.1 1.839z" class="cls-1" transform="translate(-516.614 -16.832)"/>
    </g>
    <g id="Group_9452" transform="translate(0 6.305)">
        <path id="Path_14944" d="M441.817 26.59h-.088l-1.751 6.743h-1.489L436.3 23.7h1.489l1.489 7.181h.088l1.751-7.181h1.226l1.839 7.181h.088l1.4-7.181h1.576l-2.189 9.632h-1.489z" class="cls-2" transform="translate(-436.3 -23.087)"/>
        <path id="Path_14945" d="M454.9 32.242v1.051a4.711 4.711 0 0 1-2.364.613c-2.277 0-3.24-1.4-3.24-3.5 0-2.014 1.051-3.5 3.065-3.5 1.664 0 2.715 1.138 2.715 3.328v.525H450.7c0 1.664.7 2.364 2.014 2.364a5.75 5.75 0 0 0 2.186-.881zm-4.2-2.542h3.065c-.088-1.4-.788-2.014-1.489-2.014-.787.09-1.4.703-1.576 2.014z" class="cls-2" transform="translate(-437.916 -23.485)"/>
        <path id="Path_14946" d="M458.714 26.853a5.081 5.081 0 0 1 1.839-.525c1.664 0 2.627 1.138 2.627 3.328 0 2.539-1.226 3.765-3.152 3.765a6.21 6.21 0 0 1-2.627-.7V23.35l1.4-.35v3.853zm0 5.429a3.191 3.191 0 0 0 1.226.175c.963 0 1.751-.613 1.751-2.8 0-1.751-.613-2.277-1.489-2.277a3.228 3.228 0 0 0-1.489.438v4.466z" class="cls-2" transform="translate(-438.923 -23)"/>
        <path id="Path_14947" d="M470.329 31.331l2.977-7.531h1.664v9.632h-1.489v-6.917h-.088l-2.8 6.918h-.876l-2.8-6.83h-.088v6.83H465.6V23.8h1.664z" class="cls-2" transform="translate(-439.943 -23.099)"/>
        <path id="Path_14948" d="M478 30.4c0-2.364 1.314-3.5 3.065-3.5s3.065 1.138 3.065 3.5c0 2.277-1.226 3.5-3.065 3.5S478 32.679 478 30.4zm4.729 0c0-1.839-.7-2.627-1.664-2.627-.876 0-1.664.788-1.664 2.627s.7 2.627 1.664 2.627c.963-.085 1.664-.785 1.664-2.627z" class="cls-2" transform="translate(-441.484 -23.485)"/>
        <path id="Path_14949" d="M486.488 27.863a7.232 7.232 0 0 1 3.412-.963c1.664 0 2.189.613 2.189 2.014v4.9h-1.4v-4.55c0-1.051-.525-1.226-1.226-1.226a3.717 3.717 0 0 0-1.664.525v5.342h-1.4v-6.042z" class="cls-2" transform="translate(-442.529 -23.485)"/>
        <path id="Path_14950" d="M500 32.242v1.051a4.711 4.711 0 0 1-2.364.613c-2.277 0-3.24-1.4-3.24-3.5 0-2.014 1.051-3.5 3.065-3.5 1.664 0 2.715 1.138 2.715 3.328v.525H495.8c0 1.664.7 2.364 2.014 2.364a5.246 5.246 0 0 0 2.186-.881zm-4.2-2.542h3.065c-.088-1.4-.788-2.014-1.489-2.014-.787.09-1.4.703-1.576 2.014z" class="cls-2" transform="translate(-443.523 -23.485)"/>
        <path id="Path_14951" d="M506.416 27.088h1.484l-2.452 6.743c-.7 1.839-1.489 2.8-3.065 2.8v-1.137c.963 0 1.489-.7 1.839-1.751L501.6 27h1.489l1.751 4.991h.088z" class="cls-2" transform="translate(-444.418 -23.497)"/>
    </g>
</svg>
