<svg xmlns="http://www.w3.org/2000/svg" id="Layer_2" width="77.29" height="16.781" viewBox="0 0 77.29 16.781">
    <defs>
        <style>
            .cls-1{fill:#999eb2}
        </style>
    </defs>
    <g id="Layer_14">
        <g id="layer1" transform="translate(18.97 1.664)">
            <path id="path66" d="M1144.415 21.788a5.109 5.109 0 0 0-2.277.525 6.519 6.519 0 0 0-2.715 2.364 9.192 9.192 0 0 0-1.226 2.452c-.7 1.664-.7 3.065 0 4.028a2.862 2.862 0 0 0 2.627 1.138c2.8 0 4.9-1.751 6.217-5.429.35-.963.876-2.715 0-3.941a2.753 2.753 0 0 0-2.626-1.137zm16.9 0a5.109 5.109 0 0 0-2.277.525 6.52 6.52 0 0 0-2.715 2.364 9.185 9.185 0 0 0-1.226 2.452c-.7 1.664-.7 3.065 0 4.028a2.862 2.862 0 0 0 2.627 1.138c2.8 0 4.9-1.751 6.217-5.429.35-.963.876-2.715 0-3.941a2.753 2.753 0 0 0-2.627-1.138zm-25.92.088a6.807 6.807 0 0 0-2.627.35 4.834 4.834 0 0 0-2.1 2.8 3.726 3.726 0 0 0-.175.963 2.177 2.177 0 0 0 .088.7c.088.263.35.438.525.7a2.741 2.741 0 0 0 .876.438l.35.088.525.175c.088 0 .175.088.263.088.088.088.175.088.175.175v.438a.874.874 0 0 1-.35.438 4.264 4.264 0 0 1-1.051.088h-6.13l-.963 2.627h6.392a7.812 7.812 0 0 0 2.8-.438 4.25 4.25 0 0 0 2.539-3.152 2.223 2.223 0 0 0-.175-1.664 2.481 2.481 0 0 0-1.489-.963l-.35-.088-.438-.088c-.175 0-.263-.175-.35-.263a.951.951 0 0 1-.088-.438 1.211 1.211 0 0 1 .263-.35 1.65 1.65 0 0 1 .7-.175h3.766a.086.086 0 0 1 .088-.088 8.651 8.651 0 0 1 2.452-2.277zm16.813 0a3.572 3.572 0 0 0-3.5 2.452l-2.8 7.794h3.065l1.4-4.028h2.715l.788-2.189h-2.715l.35-1.226c.088-.263.35-.35.7-.35h3.152l.088-.088a8.971 8.971 0 0 1 2.539-2.277zm14.361 0l-3.769 10.157h3.065l1.313-3.59c.088.175.876 3.59.876 3.59h3.328c-.263-1.226-.7-2.364-1.051-3.5a9.054 9.054 0 0 1-.35-.876 4.863 4.863 0 0 0 2.8-2.627 2.6 2.6 0 0 0 0-2.277q-.657-1.051-2.89-1.051zm6.48 0a2.32 2.32 0 0 1 .438.525 2.753 2.753 0 0 1 .438 1.839h1.839l-2.8 7.794h2.8l2.8-7.794h3.678l.876-2.452zm-4.466 2.1h.438c.963 0 1.313.263.963 1.138a1.765 1.765 0 0 1-1.839 1.314h-.526l.963-2.452zm-24.957 0c.963 0 1.226.525.35 2.89-.876 2.364-1.489 2.977-2.452 2.977-.963 0-1.226-.525-.35-2.89.614-1.838 1.402-2.976 2.453-2.976zm16.9 0c.963 0 1.226.525.35 2.89s-1.489 2.977-2.452 2.977c-.963 0-1.226-.525-.35-2.89.615-1.838 1.403-2.976 2.454-2.976z" class="cls-1" transform="translate(-1124.8 -21.7)"/>
        </g>
        <path id="Path_14930" d="M1110.973 25.1a3.939 3.939 0 0 0-2.89 4.816 4.007 4.007 0 0 0 4.816 2.89 3.867 3.867 0 0 0 2.89-2.977h-4.9V25.1z" class="cls-1" transform="translate(-1103.736 -20.459)"/>
        <path id="Rectangle_2211" d="M0 0H3.853V3.853H0z" class="cls-1" transform="translate(8.287 4.466)"/>
        <path id="Path_14931" d="M1112.6 19.8v2.715h5.6v5.6h2.627V19.8z" class="cls-1" transform="translate(-1104.313 -19.8)"/>
        <path id="Path_14932" d="M1111.423 34a5.728 5.728 0 0 1-.876-11.384V19.9a8.375 8.375 0 1 0 9.282 9.107h-2.715a5.741 5.741 0 0 1-5.691 4.993z" class="cls-1" transform="translate(-1103.136 -19.812)"/>
    </g>
</svg>
