<svg xmlns="http://www.w3.org/2000/svg" width="79.782" height="14.112" viewBox="0 0 79.782 14.112">
    <g>
        <path fill="#999eb2" d="M962.485 21.949a8.149 8.149 0 0 0-4.553-1.051h-5.167l-1.927 10.683h-7.005l.438-2.364h4.116l.438-2.715h-4.116l.438-2.364h4.291l.613-3.065h-8.669l-1.926 10.07h-3.24l1.927-10.07h-4.554l-1.839 10.07h-3.065l1.927-10.07h-4.554l-1.927 10.683h-6.918l.438-2.364h4.116l.438-2.715h-4.291l.438-2.364h4.291l.613-3.065h-27.147l-1.576 8.406-3.065-8.406h-4.729L884.2 35h4.554l1.576-8.669L893.307 35h16.2l1.927-10.6h2.539L912.046 35h42.47l1.226-6.743L957.757 35h4.554l-2.011-5.52.438-.088a3.852 3.852 0 0 0 2.364-1.4 4.454 4.454 0 0 0 .876-2.8 3.532 3.532 0 0 0-1.489-3.24zm-56.919 9.632h-6.83l.438-2.364h4.291l.435-2.717h-4.291l.35-2.364h6.918c.178-.085-1.311 7.445-1.311 7.445zm53.241-4.641a3.992 3.992 0 0 1-2.014.438h-.876l.7-3.678h.7a3.553 3.553 0 0 1 1.664.35 1.773 1.773 0 0 1 .7 1.226 2.407 2.407 0 0 1-.874 1.664z" transform="translate(-884.2 -20.885)"/>
    </g>
</svg>
