<svg xmlns="http://www.w3.org/2000/svg" id="Layer_2" width="83.714" height="18.039" viewBox="0 0 83.714 18.039">
    <defs>
        <style>
            .cls-1{fill:#999eb2}
        </style>
    </defs>
    <g id="Layer_1-2">
        <path id="Path_14952" d="M162.591 23.96l.876.088.088 1.051c2.977-2.627 6.3-1.489 7.093 2.364a9 9 0 0 1 0 3.065c-.7 3.24-3.765 4.466-6.568 2.627-.175-.088-.263-.175-.613-.35l-1.051 4.9h-4.378c.263-.963.438-1.839.613-2.715.263-1.138.175-1.314-1.051-1.226m9.545-4.991a3.592 3.592 0 0 0-.088-.963c-.263-.876-.613-1.576-1.664-1.576a1.621 1.621 0 0 0-1.839 1.489 4.623 4.623 0 0 0 0 2.189 1.733 1.733 0 0 0 1.839 1.489 1.954 1.954 0 0 0 1.751-1.751v-.876z" class="cls-1" transform="translate(-110.051 -19.756)"/>
        <path id="Path_14953" d="M163.9 37.823h22.33c2.452 0 3.415-.7 4.291-2.977 1.138-2.977 2.277-5.955 3.328-8.932.263-.613.438-1.226.7-2.014h-2.715c-.613 0-.876.263-1.051.876-.438 1.664-.963 3.24-1.4 4.9-.175.35-.263.7-.438 1.051-.263-.7-.35-1.051-.525-1.489-.438-1.489-.963-3.065-1.489-4.554-.088-.263-.35-.7-.613-.7-1.051-.088-2.189-.088-3.415-.088.175.525.35.788.438 1.138 1.138 2.715 2.277 5.429 3.415 8.231a1.5 1.5 0 0 1-1.051 2.189 10.729 10.729 0 0 1-1.664.175h-19.878z" class="cls-1" transform="translate(-110.834 -19.784)"/>
        <path id="Path_14954" d="M184.409 33.926a21.129 21.129 0 0 1-3.328.088s-.088-1.314-.263-1.314c-.35.175-.613.35-.963.525a5.51 5.51 0 0 1-4.816.438 2.751 2.751 0 0 1-1.839-2.452 2.451 2.451 0 0 1 1.751-2.539c1.314-.438 2.627-.613 3.941-.963a3.137 3.137 0 0 0 .963-.35c.263-.175.788-.525.7-.7a.983.983 0 0 0-.7-.963 4.232 4.232 0 0 0-2.364.35 3.06 3.06 0 0 1-1.926.7c-.175 0-1.314 0-2.1-.088a3.3 3.3 0 0 1 2.452-2.89 26.38 26.38 0 0 1 5.254-.175c2.1.175 2.977 1.4 3.065 3.59V30.6a21.757 21.757 0 0 1 .173 3.326zm-3.853-4.991a12.333 12.333 0 0 0-2.715.876 1.724 1.724 0 0 0-.876 1.314c0 .7.613.963 1.314.963 1.751-.001 2.802-1.227 2.277-3.154z" class="cls-1" transform="translate(-111.99 -19.74)"/>
        <path id="Path_14955" d="M161.46 26.649c-2.189 7.356-5.254 7.093-5.254 7.093-2.452 0-4.9 0-7.268-.088-1.751-.088-2.277-1.051-1.489-2.627a4.139 4.139 0 0 1 2.977-2.539c1.576-.35 3.24-.438 4.816-.7.788-.088 1.664-.088 2.539-.175s1.226-.788 1.314-1.576-.7-1.138-1.314-1.051a31.706 31.706 0 0 0-4.028.525 1.538 1.538 0 0 0-.876.788c-.525 1.051-1.226 1.051-2.1.613.175-1.839 1.664-3.152 3.941-3.24 9.194-1.139 6.742 2.977 6.742 2.977zm-9.9 6.918h1.576c.876.088.788 0 .788-.876a3.3 3.3 0 0 1 .788-2.364 2.005 2.005 0 0 0 .35-1.489c-.088-.35-.963-.35-1.314-.175-.7.35-.7.963-.788 1.576-.175 1.314-.175 1.051-.525 1.489a4.007 4.007 0 0 0-.87 1.839z" class="cls-1" transform="translate(-108.744 -19.731)"/>
        <path id="Path_14956" d="M108.379 24.454l6.918 1.314c0 .963-.613.963-1.138.963H103.3l11.121 1.4c-.7 1.489-1.314 2.715-2.014 3.941-.088.175-.613.263-.963.263h-3.5c1.751.175 3.941.35 6.13.613.876.088 1.576 0 2.014-.963.876-1.839 1.751-3.678 2.715-5.429l.438-.7h2.014a15.493 15.493 0 0 0 .963-2.8H120.9a2.409 2.409 0 0 1 2.014-1.751c.438 0 .7.175.788.088 0 0 .876-1.314 1.314-2.189h-13.747c1.576.175 4.466.7 7.268 1.051l-.175.35-12.61.35 11.3 1.576c-.088.263-.088.263-.088.35a4.993 4.993 0 0 0-1.138-.088 12.539 12.539 0 0 1-.788 1.664z" class="cls-1" transform="translate(-103.3 -19.2)"/>
        <path id="Path_14957" d="M123.849 26.394a5.512 5.512 0 0 1 2.977-2.277 13.159 13.159 0 0 1 6.392-.35 1.486 1.486 0 0 1 1.314 1.926 7.913 7.913 0 0 1-.7 1.839c-.876 1.839-1.751 3.765-2.627 5.6a.658.658 0 0 1-.613.438c-.876.088-1.751 0-2.627 0 0-.35-.088-.7-.088-1.051a1.245 1.245 0 0 0-.525.175 8.144 8.144 0 0 1-4.9 1.138c-1.576-.088-2.189-1.051-1.489-2.539a5.6 5.6 0 0 1 4.378-2.977c1.4-.263 2.715-.525 4.116-.876.263-.088.613-.088.788-.263a1.729 1.729 0 0 0 .525-1.051c0-.263-.525-.613-.788-.613a3.778 3.778 0 0 0-2.014.35 3.164 3.164 0 0 1-2.89.525zm5.6 2.364c-1.226.35-2.364.613-3.5.963a2.737 2.737 0 0 0-.963.788 1.433 1.433 0 0 0-.175 1.051c.088.263.525.438.876.438a3.875 3.875 0 0 0 3.766-3.239z" class="cls-1" transform="translate(-105.46 -19.739)"/>
        <path id="Path_14958" d="M138.339 33.916a11.842 11.842 0 0 1-2.539-.35 2.071 2.071 0 0 1-1.226-1.051c-.438-.788-.088-1.314.876-1.489a18.435 18.435 0 0 1 2.189-.175.893.893 0 0 1 .7.438 1.38 1.38 0 0 0 1.751.7 9.853 9.853 0 0 0 1.839-1.051c-.175-.35-.35-.876-.613-.963-.876-.35-1.839-.438-2.715-.7-1.576-.438-2.014-1.4-1.226-2.8a5.437 5.437 0 0 1 2.977-2.452 10.99 10.99 0 0 1 5.6-.35 2.181 2.181 0 0 1 1.226.963q.657 1.182-.788 1.314a10.6 10.6 0 0 1-1.664.088 2.145 2.145 0 0 1-1.051-.35 2.037 2.037 0 0 0-2.8.088c-.438.525-.35 1.051.35 1.226a16.344 16.344 0 0 0 2.189.35c2.452.438 3.065 1.926 1.4 3.853-1.746 2.095-3.936 2.624-6.475 2.711z" class="cls-1" transform="translate(-107.165 -19.73)"/>
    </g>
</svg>
