<svg xmlns="http://www.w3.org/2000/svg" id="Layer_2" width="64.712" height="23.82" viewBox="0 0 64.712 23.82">
    <defs>
        <style>
            .cls-1{fill:#999eb2}
        </style>
    </defs>
    <g id="Layer_1-2">
        <path id="Path_14914" d="M813.783 34.939c-.35 1.489-.7 2.89-.963 4.291-.613-1.751-1.138-3.59-1.576-5.342-.088-.263-.175-.7-.175-.7h-2.014s-.088.438-.175.788c-.438 1.839-1.051 3.678-1.664 5.692-.438-2.1-.876-3.941-1.313-5.779a3.972 3.972 0 0 0-.175-.7L803.1 33.1c.876 3.24 1.751 6.3 2.627 9.37h2.452c.525-1.926 1.051-3.765 1.664-5.955.7 2.189 1.314 4.028 1.839 5.955h2.277c.876-3.065 1.751-6.217 2.627-9.282h-2.364s-.176.788-.439 1.751z" class="cls-1" transform="translate(-774.816 -18.651)"/>
        <path id="Path_14915" d="M786.235 17.3c-.438-.175-.876-.438-1.4-.7h-.175c-1.313.613-2.627 1.226-3.853 1.751-2.277.963-4.466 2.014-7.005 3.065h21.717c-3.242-1.401-6.219-2.802-9.284-4.116z" class="cls-1" transform="translate(-771.173 -16.6)"/>
        <path id="Path_14916" d="M831.629 38.241a5.776 5.776 0 0 0 .963-.35 2.34 2.34 0 0 0 1.751-2.1 2.368 2.368 0 0 0-1.576-2.364 10.524 10.524 0 0 0-6.568 0v9.019h2.627V38.5h.263c.788 1.138 1.489 2.189 2.277 3.328.175.175.438.525.613.525a26.221 26.221 0 0 0 2.627 0c-.613-.788-1.051-1.489-1.576-2.1s-.963-1.399-1.401-2.012zM829.7 37.8a2.425 2.425 0 0 1-.788-.088 1.929 1.929 0 0 1-.088-.7l-.088-1.751c0-.613-.175-1.138.788-1.138 1.138-.088 1.927.35 2.1 1.314A1.888 1.888 0 0 1 829.7 37.8z" class="cls-1" transform="translate(-777.688 -18.626)"/>
        <path id="Path_14917" d="M840.415 40.981v-2.715h2.8v-1.313h-2.8v-2.539h3.152V33.1H837.7v9.37h5.867v-1.489z" class="cls-1" transform="translate(-779.117 -18.651)"/>
        <path id="Path_14918" d="M820.3 42.482h2.8V33.2h-2.8z" class="cls-1" transform="translate(-776.954 -18.664)"/>
        <path id="Path_14919" d="M824.7 20v9.282h1.926V23.24c1.226 1.839 2.364 3.59 3.5 5.254.263.35.613.788.613.788h1.664v-9.194h-1.839v5.342l-.175.088c-1.051-1.664-2.189-3.328-3.328-4.9a5.189 5.189 0 0 0-.35-.525z" class="cls-1" transform="translate(-777.501 -17.023)"/>
        <path id="Path_14920" d="M804.038 29.1a8.206 8.206 0 0 0 5.779-.175 2.191 2.191 0 0 0 .175-3.853c-.263-.175-.613-.35-.876-.525l.175-.175a2.077 2.077 0 0 0 1.4-2.1 2.234 2.234 0 0 0-1.927-2.014 8.352 8.352 0 0 0-4.641.088.926.926 0 0 0-.525.613v7.618c.09.089.352.439.44.523zm4.729-2.277a1.406 1.406 0 0 1-1.489 1.4c-1.226.088-1.313 0-1.313-1.226v-2.009a8.513 8.513 0 0 1 1.576.088 1.549 1.549 0 0 1 1.225 1.751zm-2.8-5.254c0-.175 0-.35.263-.438a2.047 2.047 0 0 1 1.839.438 1.316 1.316 0 0 1 .35 1.4 1.652 1.652 0 0 1-1.051.963 6.944 6.944 0 0 1-1.489.175c.085-.958.085-1.746.085-2.534z" class="cls-1" transform="translate(-774.878 -17.019)"/>
        <path id="Path_14921" d="M838.277 28.231v-3.24h.263c.7 1.226 1.4 2.539 2.1 3.765a5.021 5.021 0 0 1 .35.613h2.627l-2.977-4.9L843.356 20h-2.189l-2.715 4.028h-.263V20H836v9.282h2.277c.087-.087 0-.525 0-1.051z" class="cls-1" transform="translate(-778.906 -17.023)"/>
        <path id="Path_14922" d="M822.032 29.382c-.963-2.8-1.927-5.342-2.8-7.969a8.222 8.222 0 0 0-.532-1.313h-2.36a3.969 3.969 0 0 0-.263.7c-.438 1.4-.963 2.715-1.4 4.028-.526 1.489-1.051 2.977-1.576 4.378 1.138.088 1.927.088 1.927.088l.876-2.014 2.977.088.876 2.014zm-5.867-3.24l1.314-3.853c.35 1.314.788 2.539 1.138 3.853z" class="cls-1" transform="translate(-776.059 -17.035)"/>
        <path id="Path_14923" d="M773.651 24.388h22.155c.613 0 .963-.175.876-.788 0-.788-.525-.7-1.051-.7h-21.98c-.613 0-1.051 0-1.051.788s.525.7 1.051.7z" class="cls-1" transform="translate(-771.024 -17.383)"/>
        <path id="Path_14924" d="M772.6 39.093c0 .876.525.788 1.051.788h22.067c.613 0 .963-.175.876-.788 0-.788-.525-.7-1.051-.7h-21.892c-.438-.093-1.051-.176-1.051.7z" class="cls-1" transform="translate(-771.024 -19.303)"/>
        <path id="Path_14925" d="M796.545 41h-24.519c-.613 0-1.226-.088-1.226 1.226s.613 1.226 1.226 1.226h24.694c.7 0 1.051-.263 1.051-1.314-.088-1.226-.701-1.138-1.226-1.138z" class="cls-1" transform="translate(-770.8 -19.633)"/>
        <path id="Path_14926" d="M788.85 25.4c-.788 0-1.051.263-1.051 1.051v7.706c0 2.189-.263 1.926 2.1 2.014.7 0 .963-.263.963-.963v-7.971c-.086-2.101.177-1.837-2.012-1.837z" class="cls-1" transform="translate(-772.912 -17.693)"/>
        <path id="Path_14927" d="M795.248 25.4c-.788 0-1.051.263-1.051 1.051v7.706c0 2.189-.35 2.014 2.1 2.014.7 0 .963-.263.963-.963v-7.882c-.085-2.189.09-1.838-2.012-1.926z" class="cls-1" transform="translate(-773.707 -17.694)"/>
        <path id="Path_14928" d="M776.147 25.2c-.788 0-1.051.263-1.051 1.051.088 2.539 0 5.079 0 7.618 0 2.452-.438 2.014 2.189 2.1.613 0 .788-.263.788-.788v-8.055c-.087-2.014.263-1.838-1.926-1.926z" class="cls-1" transform="translate(-771.331 -17.669)"/>
        <path id="Path_14929" d="M782.461 25.2c-.788 0-1.051.263-.963 1.051v7.706c0 2.364-.35 2.014 2.1 2.1.613 0 .876-.263.876-.876v-7.967c-.087-2.014.351-1.926-2.013-2.014z" class="cls-1" transform="translate(-772.128 -17.669)"/>
    </g>
</svg>
