<svg xmlns="http://www.w3.org/2000/svg" width="41.945" height="14.361" viewBox="0 0 41.945 14.361">
    <g>
        <path fill="#999eb2" d="M1048.863 21.589l3.5-.613v13.4h-3.5zm5.079 0v12.785h3.5V20.888zm-10.07 12.7h3.5v-9.811h-3.5zm-23.118-8.406c-.438 0-1.489-.088-1.489-1.051 0-1.138 1.489-1.138 2.014-1.138a17.227 17.227 0 0 1 3.065.525s.525.175.963.35h.088v-2.98h-.088a11.543 11.543 0 0 0-4.553-.7c-3.94 0-5.254 2.277-5.254 4.291 0 1.138.438 3.765 4.991 4.116.35.088 1.4.088 1.4 1.051 0 .788-.876 1.226-2.189 1.226a10.541 10.541 0 0 1-3.941-.788v3.152a20.384 20.384 0 0 0 4.641.525c3.853 0 5.6-2.189 5.6-4.291.006-2.453-2.008-4.029-5.248-4.292zm21.1-1.489c-3.24.088-4.9 1.576-4.9 4.378v5.517h3.5v-4.557c0-1.751.263-2.452 2.277-2.539V24.3a3.284 3.284 0 0 1-.876.088zm-9.545.088a13.486 13.486 0 0 1-2.014 3.415v-7.009l-3.59.7v12.7h3.59v-3.943a15.455 15.455 0 0 1 1.576 3.941h4.378a32.233 32.233 0 0 0-2.277-4.991 16.462 16.462 0 0 0 2.539-4.729zm13.31-.876a1.751 1.751 0 1 0-1.751-1.751 1.756 1.756 0 0 0 1.755 1.745z" transform="translate(-1015.5 -20.1)"/>
    </g>
</svg>
